# xmcd
#
# Track frame offsets:
#	150
#	11902
#	18942
#	34048
#	55431
#	64917
#	70685
#	87752
#	97068
#	103896
#	121050
#	132704
#	149745
#	159972
#	169348
#	175953
#	189165
#
# Disc length: 2748 seconds
#
# Revision: 1
# Processed by: cddbd v1.5.2PL0 Copyright (c) Steve Scherf et al.
# Submitted via: audiograbber 1.83.01
#
DISCID=f20aba11
DTITLE=Mad Marlon - Introducing The FREEMAN Bloe Ballies [Mixtape Gods Vol. 2]
DYEAR=2012
DGENRE=Hip-Hop
TTITLE0=Movement
TTITLE1=Number 1
TTITLE2=Middle Of The Map
TTITLE3=Out Rhyme Me
TTITLE4=Go
TTITLE5=Searve God
TTITLE6=I Don't Luv 'Em
TTITLE7=Start Wars
TTITLE8=Respect My Hustle
TTITLE9=Bounce
TTITLE10=By Myself
TTITLE11=Claim
TTITLE12=Frown Face
TTITLE13=Gorrilla Hustlin'
TTITLE14=Dream
TTITLE15=Lay Em Down
TTITLE16=We Got It
EXTD=
EXTT0=
EXTT1=
EXTT2=
EXTT3=
EXTT4=
EXTT5=
EXTT6=
EXTT7=
EXTT8=
EXTT9=
EXTT10=
EXTT11=
EXTT12=
EXTT13=
EXTT14=
EXTT15=
EXTT16=
PLAYORDER=
